<svg width="1562" height="452" viewBox="0 0 1562 452" fill="none" xmlns="http://www.w3.org/2000/svg">
<rect width="392" height="414" fill="black"/>
<path d="M659.806 369.433H615.638L602.593 353.185C577.878 371.035 550.187 376.757 520.208 374.697C472.378 371.264 438.966 344.718 426.151 298.49C417.912 269.426 417.912 238.76 426.379 209.697C440.11 162.554 479.701 130.744 528.904 128.913C548.356 128.226 567.808 130.744 588.405 132.117V36H659.806V369.433ZM588.176 301.694V198.025C583.828 195.966 579.937 193.677 575.589 192.304C539.202 179.488 506.248 193.906 496.865 227.318C494.577 234.641 493.432 242.422 493.432 250.203C493.89 273.088 497.78 295.515 520.665 307.186C543.55 318.629 566.664 315.654 588.176 301.694Z" fill="#665C54"/>
<path d="M1008.83 211.679V371.873H937.891V137.532H987.551L1002.43 156.069C1053.46 116.935 1112.96 127.234 1140.65 163.392L1153.7 153.322C1182.07 131.582 1213.65 126.089 1247.52 135.243C1268.81 140.964 1285.06 154.009 1292.38 174.834C1297.87 190.854 1302.68 207.788 1303.13 224.494C1304.51 271.637 1303.82 318.78 1303.82 365.923C1303.59 368.212 1303.36 370.271 1302.91 372.331H1231.96V331.367V255.16C1231.96 250.583 1231.96 245.777 1231.5 241.2C1228.53 205.5 1208.39 191.998 1174.06 202.983C1167.88 205.271 1162.16 208.017 1156.44 210.992V371.873H1084.13V355.167V252.643V248.066C1083.21 203.44 1055.75 187.421 1015.7 207.788C1013.64 208.475 1012.04 209.619 1008.83 211.679Z" fill="#675D55"/>
<path d="M906.768 265.687H759.16C755.041 286.741 768.314 307.795 790.512 314.66C815.457 322.441 840.63 319.924 865.346 312.372C875.644 309.168 885.256 304.362 896.241 299.785L886.858 354.938C871.525 368.211 853.217 373.703 833.994 375.992C808.134 378.967 782.274 378.28 757.1 370.271C722.773 359.057 699.43 336.401 688.903 301.845C679.52 271.408 679.063 238.911 687.988 208.474C700.574 164.078 736.504 134.785 782.731 131.81C795.547 130.666 808.591 130.894 821.407 132.725C856.879 138.446 881.594 158.814 894.868 192.226C904.25 215.111 907.683 239.598 906.768 265.687ZM757.329 230.215H847.496C845.436 200.465 824.382 186.276 804.014 186.276C777.926 186.505 760.991 201.838 757.329 230.215Z" fill="#675C55"/>
<path d="M1385.52 137.532C1394.45 162.934 1403.14 188.107 1412.07 213.281C1420.76 238.683 1429.46 264.085 1439.53 293.149L1490.79 137.303H1561.73L1437.93 451.055H1366.07L1400.17 364.092L1306.11 137.532H1385.52Z" fill="#665C55"/>
<path d="M336.94 50H262.335C262.335 108.128 262.564 164.653 262.106 220.95C262.106 232.851 260.962 244.751 258.673 256.422C254.554 276.103 243.798 291.894 223.202 295.098C206.496 297.615 189.332 297.615 172.626 295.098C154.776 292.58 142.647 279.994 138.299 262.83C134.637 248.87 132.577 234.453 132.349 220.035C131.662 169.23 132.12 118.426 132.12 67.6214V50H57.0572V66.0194C57.0572 113.162 56.8283 160.305 57.286 207.448C57.286 227.587 58.4303 247.726 60.49 267.865C66.4401 319.356 94.8173 353.912 140.816 364.897C173.999 372.677 208.784 373.135 242.425 366.499C292.314 357.116 322.065 327.365 332.821 278.392C335.338 267.178 336.711 255.964 336.94 244.522C337.626 182.961 337.626 121.172 337.855 59.6117C337.855 56.6366 337.398 53.6616 336.94 50Z" fill="#EC5250"/>
</svg>
